<?xml version="1.0" encoding="iso-8859-1"?>
<!-- Uploaded to: SVG Repo, www.svgrepo.com, Generator: SVG Repo Mixer Tools -->
<svg fill="#000000" height="800px" width="800px" version="1.1" id="Capa_1" xmlns="http://www.w3.org/2000/svg" xmlns:xlink="http://www.w3.org/1999/xlink" 
	 viewBox="0 0 31.004 31.004" xml:space="preserve">
<g>
	<path d="M22.397,31.004v-4.512c0-0.938,0.759-1.701,1.701-1.701l3.496-0.1L22.397,31.004z"/>
	<path d="M25.9,0H5.107C4.171,0,3.41,0.762,3.41,1.695v27.611c0,0.939,0.761,1.697,1.697,1.697h15.605v-6.02
		c0-0.936,0.759-1.695,1.694-1.695h5.188V1.695C27.595,0.762,26.837,0,25.9,0z M12.606,23.525c0,0.168,2.513,2.512,2.513,2.512
		l-1.477,1.479c0,0-2.341-2.514-2.517-2.514c-0.171,0-2.512,2.514-2.512,2.514l-1.478-1.479c0,0,2.513-2.305,2.513-2.512
		c0-0.209-2.513-2.516-2.513-2.516l1.478-1.479c0,0,2.361,2.514,2.512,2.514c0.156,0,2.517-2.514,2.517-2.514l1.477,1.479
		C15.119,21.01,12.606,23.354,12.606,23.525z"/>
	<g>
	</g>
	<g>
	</g>
	<g>
	</g>
	<g>
	</g>
	<g>
	</g>
	<g>
	</g>
	<g>
	</g>
	<g>
	</g>
	<g>
	</g>
	<g>
	</g>
	<g>
	</g>
	<g>
	</g>
	<g>
	</g>
	<g>
	</g>
	<g>
	</g>
</g>
</svg>