<?xml version="1.0" encoding="iso-8859-1"?>
<!-- Uploaded to: SVG Repo, www.svgrepo.com, Generator: SVG Repo Mixer Tools -->
<!DOCTYPE svg PUBLIC "-//W3C//DTD SVG 1.1//EN" "http://www.w3.org/Graphics/SVG/1.1/DTD/svg11.dtd">
<svg fill="#000000" version="1.1" id="Capa_1" xmlns="http://www.w3.org/2000/svg" xmlns:xlink="http://www.w3.org/1999/xlink" 
	 width="800px" height="800px" viewBox="0 0 560.801 560.8"
	 xml:space="preserve">
<g>
	<g>
		<path d="M560.801,124.997c0-9.33-7.562-16.891-16.893-16.891H314.182c-9.33,0-22.24-1.971-28.834-8.565l-50.435-47.057
			c-6.598-6.598-19.508-11.943-28.834-11.943H16.891C7.561,40.541,0,48.102,0,57.432v371.616c0,9.33,7.561,16.892,16.891,16.892
			h225.207c-10.015-22.791-15.75-47.868-15.75-74.321c0-102.449,83.361-185.807,185.806-185.807
			c61.004,0,114.75,29.939,148.646,75.484V124.997z"/>
		<path d="M412.154,222.969c-82.088,0-148.646,66.594-148.646,148.645c0,82.052,66.556,148.646,148.646,148.646
			c82.127,0,148.646-66.592,148.646-148.646C560.801,289.56,494.281,222.969,412.154,222.969z M500.775,425.761l-35.832,35.832
			l-52.789-52.788l-52.787,52.788l-35.834-35.832l52.789-52.788l-52.785-52.785l35.832-35.833l52.785,52.785l52.789-52.788
			l35.832,35.833l-52.789,52.788L500.775,425.761z"/>
	</g>
</g>
</svg>